<?xml version="1.0" encoding="utf-8"?>
<!-- Generator: Adobe Illustrator 27.5.0, SVG Export Plug-In . SVG Version: 6.00 Build 0)  -->
<svg version="1.1" id="Layer_1" xmlns="http://www.w3.org/2000/svg" xmlns:xlink="http://www.w3.org/1999/xlink" x="0px" y="0px"
	 viewBox="0 0 15 16" style="enable-background:new 0 0 15 16;" xml:space="preserve">
<style type="text/css">
	.st0{fill:#FFFFFF;filter:url(#Adobe_OpacityMaskFilter);}
	.st1{mask:url(#mask0_731_128_00000049183403094444144750000017879505022554393753_);}
	.st2{fill:#F72210;}
</style>
<g>
	<g>
		<defs>
			<filter id="Adobe_OpacityMaskFilter" filterUnits="userSpaceOnUse" x="0.2" y="0" width="14.7" height="15.9">
				<feColorMatrix  type="matrix" values="1 0 0 0 0  0 1 0 0 0  0 0 1 0 0  0 0 0 1 0"/>
			</filter>
		</defs>
		
			<mask maskUnits="userSpaceOnUse" x="0.2" y="0" width="14.7" height="15.9" id="mask0_731_128_00000049183403094444144750000017879505022554393753_">
			<path class="st0" d="M15,0H0v16h15V0z"/>
		</mask>
		<g class="st1">
			<path class="st2" d="M1.3,15.6c-0.3-0.2-0.6-0.5-0.8-0.9c-0.2-0.4-0.3-0.8-0.3-1.2v-0.5l1.9,0v0.3c0,0.2,0.1,0.3,0.2,0.4
				C2.3,13.9,2.5,14,2.6,14h2c0.2,0,0.3-0.1,0.4-0.2c0.1-0.1,0.1-0.3,0.1-0.4v-1.7C5.1,11.8,5,11.8,5,11.8c-0.1,0-0.2,0-0.3,0H2.5
				c-0.4,0-0.8-0.1-1.1-0.3C1,11.3,0.7,11,0.5,10.6c-0.2-0.4-0.3-0.8-0.3-1.2V8c0-0.4,0.1-0.8,0.3-1.2C0.7,6.4,1,6.1,1.4,5.9
				c0.4-0.2,0.7-0.3,1.1-0.3h2.3c0.4,0,0.8,0.1,1.1,0.3c0.4,0.2,0.6,0.5,0.9,0.9C6.9,7.2,7,7.6,7,8v5.5c0,0.4-0.1,0.8-0.3,1.2
				c-0.2,0.4-0.5,0.7-0.9,0.9c-0.4,0.2-0.7,0.3-1.1,0.3H2.4C2.1,15.9,1.7,15.8,1.3,15.6L1.3,15.6z M4.7,9.9c0.1,0,0.2,0,0.3-0.1
				C5,9.8,5.1,9.7,5.2,9.6V8.2c0-0.2-0.1-0.3-0.2-0.4C5,7.6,4.8,7.5,4.7,7.5H2.6c-0.2,0-0.3,0-0.4,0.1C2.1,7.8,2,7.9,2,8.1v1.2
				c0,0.2,0.1,0.3,0.2,0.4c0.1,0.1,0.2,0.2,0.4,0.2L4.7,9.9L4.7,9.9z"/>
			<path class="st2" d="M9,15.6c-0.4-0.2-0.6-0.5-0.9-0.9c-0.2-0.4-0.3-0.8-0.3-1.2l0-5.5c0-0.4,0.1-0.8,0.3-1.2
				c0.2-0.4,0.5-0.7,0.9-0.9c0.4-0.2,0.7-0.3,1.1-0.3h2.2c0.4,0,0.8,0.1,1.1,0.3s0.6,0.5,0.9,0.9c0.2,0.4,0.3,0.8,0.3,1.2v5.5
				c0,0.4-0.1,0.8-0.3,1.2c-0.2,0.4-0.5,0.7-0.9,0.9c-0.4,0.2-0.7,0.3-1.1,0.3h-2.2C9.7,15.9,9.3,15.8,9,15.6z M12.1,14
				c0.2,0,0.3-0.1,0.4-0.2c0.1-0.1,0.2-0.3,0.2-0.4V8.2c0-0.2-0.1-0.3-0.2-0.5c-0.1-0.1-0.2-0.2-0.4-0.2h-1.9
				c-0.2,0-0.3,0.1-0.4,0.2C9.7,7.8,9.6,8,9.6,8.2v5.2c0,0.2,0.1,0.3,0.2,0.5C9.9,13.9,10,14,10.2,14H12.1z"/>
			<path class="st2" d="M7.6,0L8,1.5h1.5L8.3,2.4l0.5,1.5L7.6,3L6.4,3.9l0.5-1.5L5.6,1.5h1.5L7.6,0z"/>
			<path class="st2" d="M11.2,1l0.3,1.1h1.1l-0.9,0.7l0.3,1.1l-0.9-0.7l-0.9,0.7l0.3-1.1L9.7,2.1h1.1L11.2,1z"/>
			<path class="st2" d="M13.9,1.9l0.2,0.8h0.8l-0.6,0.5l0.2,0.8l-0.6-0.5l-0.6,0.5l0.2-0.8l-0.6-0.5h0.8L13.9,1.9z"/>
			<path class="st2" d="M1.2,1.9l0.2,0.8h0.8L1.6,3.1l0.2,0.8L1.2,3.4L0.6,3.9l0.2-0.8L0.2,2.6H1L1.2,1.9z"/>
			<path class="st2" d="M3.9,1l0.3,1.1h1.1L4.5,2.8l0.3,1.1L3.9,3.2L3,3.9l0.3-1.1L2.4,2.1h1.1L3.9,1z"/>
		</g>
	</g>
</g>
</svg>
