<svg width="106" height="17" viewBox="0 0 106 17" fill="none" xmlns="http://www.w3.org/2000/svg">
<path d="M15.8913 2.96506H14.3965V16.2255H11.647L4.94694 7.16556V13.2329H6.44178V16.198H0.222168V13.2604H1.71701V2.96506H0.222168V0H4.92025L11.1666 8.42845V2.96506H9.67171V0H15.8646L15.8913 2.96506ZM25.7947 10.4326C25.7947 10.6797 25.7947 10.9268 25.768 11.1739H18.9878C18.8009 13.4251 19.6284 14.084 20.883 14.084C21.9241 14.084 22.7249 13.3702 22.7249 12.272H25.6612C25.5811 14.2488 24.5935 16.5 20.7229 16.5C16.8523 16.5 15.0371 13.6173 15.0371 10.4326C15.0371 7.54992 16.9057 4.5025 20.6428 4.5025C24.2197 4.47504 25.7947 7.02829 25.7947 10.4326ZM42.665 7.49501H41.6774L39.1682 16.2255H35.8315L34.2565 11.4484L32.8418 16.2255H29.425L26.5955 7.52246H25.6078V4.5574H31.5071V7.49501H30.0123L31.5605 12.1348L33.5892 4.5574H35.4044L37.8869 12.1348L39.2216 7.49501H37.7267V4.5574H42.665V7.49501ZM46.8026 7.63228C46.8026 8.04409 47.1229 8.31864 48.244 8.703L49.8456 9.25208C51.3138 9.74626 53.0756 10.8719 53.0756 12.9309C53.0756 15.3469 51.3138 16.5 49.1516 16.5C47.4165 16.5 46.0818 15.6215 45.7081 15.2371V16.198H42.8252V12.1897H45.6547C45.7348 13.5075 46.8826 14.1938 47.9237 14.1938C48.7779 14.1938 49.1783 13.8095 49.1783 13.3702C49.1783 12.8211 48.858 12.5191 47.4432 12.0524L46.0284 11.5582C44.587 11.0915 42.9854 9.99335 42.9854 8.04409C42.9854 5.65557 45.0408 4.44759 46.8026 4.44759C48.6177 4.44759 49.4986 4.96922 49.9524 5.49085L49.9791 4.58486H52.8086V8.23627H49.8189C49.7655 7.24792 48.8313 6.80865 47.897 6.80865C47.1496 6.80865 46.8026 7.16556 46.8026 7.63228ZM70.373 7.49501H69.3854L66.8762 16.2255H63.5395L61.9645 11.4484L60.5498 16.2255H57.133L54.3035 7.52246H53.3158V4.5574H59.2151V7.49501H57.7202L59.2685 12.1348L61.2972 4.5574H63.1124L65.5949 12.1622L66.9296 7.52246H65.4347V4.5574H70.373V7.49501ZM80.8369 10.4052C80.8369 10.6522 80.8369 10.8993 80.8102 11.1464H74.0301C73.8432 13.3977 74.6707 14.0566 75.9253 14.0566C76.9664 14.0566 77.7672 13.3428 77.7672 12.2446H80.7035C80.6234 14.2213 79.6357 16.4725 75.7651 16.4725C71.8946 16.4725 70.0794 13.5899 70.0794 10.4052C70.0794 7.52246 71.948 4.47504 75.6851 4.47504C79.262 4.44759 80.8369 7.00083 80.8369 10.4052ZM92.0216 10.3777C92.0216 10.6248 92.0216 10.8719 91.9949 11.119H85.2147C85.0278 13.3702 85.8553 14.0291 87.1099 14.0291C88.151 14.0291 88.9518 13.3153 88.9518 12.2171H91.8881C91.808 14.1938 90.8204 16.4451 86.9498 16.4451C83.0792 16.4451 81.264 13.5624 81.264 10.3777C81.264 7.49501 83.1326 4.44759 86.8697 4.44759C90.4466 4.42013 92.0216 6.97338 92.0216 10.3777ZM104.301 16.198H100.884L97.3336 11.4484L96.1858 12.327V13.2604H97.2001V16.198H91.9682V13.2604H92.9558V2.91015H91.461V0H96.2125V9.30699L98.5882 7.52246H97.0934V4.5574H103.473V7.52246H102.485L100.003 9.44426L102.859 13.2604H104.354L104.301 16.198ZM105.822 15.5391C105.822 15.6764 105.795 15.7862 105.715 15.8686C105.662 15.9784 105.582 16.0607 105.475 16.1156C105.368 16.1706 105.262 16.2255 105.128 16.2255C104.995 16.2255 104.888 16.198 104.808 16.1156C104.701 16.0607 104.621 15.9784 104.568 15.8686C104.514 15.7587 104.461 15.6489 104.461 15.5391C104.461 15.4018 104.487 15.292 104.568 15.2097C104.621 15.0998 104.701 15.0175 104.808 14.9626C104.915 14.9077 105.021 14.8527 105.128 14.8527C105.262 14.8527 105.368 14.8802 105.475 14.9626C105.582 15.0175 105.662 15.0998 105.715 15.2097C105.795 15.3195 105.822 15.4293 105.822 15.5391ZM105.555 15.9235C105.662 15.8136 105.715 15.6764 105.715 15.5391C105.715 15.3744 105.662 15.2646 105.555 15.1547C105.448 15.0449 105.315 14.99 105.182 14.99C105.048 14.99 104.915 15.0449 104.808 15.1547C104.701 15.2646 104.648 15.4018 104.648 15.5391C104.648 15.7038 104.701 15.8136 104.808 15.9235C104.915 16.0333 105.048 16.0882 105.182 16.0882C105.315 16.0882 105.448 16.0333 105.555 15.9235ZM105.288 15.594C105.315 15.6215 105.342 15.6215 105.342 15.6215C105.368 15.6489 105.395 15.6764 105.395 15.7038C105.395 15.7038 105.448 15.7862 105.502 15.9235H105.288C105.208 15.7862 105.182 15.7038 105.155 15.6764C105.128 15.6489 105.101 15.6215 105.075 15.6215H105.048V15.9235H104.888V15.2097H105.208C105.315 15.2097 105.368 15.2371 105.395 15.2646C105.448 15.3195 105.448 15.3469 105.448 15.4293C105.448 15.4842 105.422 15.5391 105.395 15.5666C105.368 15.5391 105.342 15.5666 105.288 15.594ZM105.262 15.4567C105.288 15.4293 105.288 15.4018 105.288 15.3744C105.288 15.3469 105.262 15.3195 105.262 15.292C105.235 15.2646 105.208 15.2646 105.155 15.2646H105.075V15.4567H105.155C105.208 15.4842 105.235 15.4842 105.262 15.4567ZM85.2147 9.19717H88.9251C88.9251 7.54992 87.884 6.89102 87.1099 6.89102C86.2024 6.91847 85.2681 7.65973 85.2147 9.19717ZM74.0301 9.22463H77.7405C77.7405 7.57737 76.6994 6.91847 75.9253 6.91847C75.0444 6.91847 74.1101 7.68719 74.0301 9.22463ZM18.9878 9.25208H22.6982C22.6982 7.60483 21.6572 6.94592 20.883 6.94592C20.0021 6.94592 19.0679 7.71464 18.9878 9.25208Z" fill="#F72210"/>
</svg>
