<svg width="52" height="64" viewBox="0 0 52 64" fill="none" xmlns="http://www.w3.org/2000/svg">
<path d="M15.8086 35.4023L19.5488 23.7812H22.2539L17.1562 38H15.3301L15.8086 35.4023ZM12.3516 23.7812L16.0625 35.4023L16.5703 38H14.7344L9.65625 23.7812H12.3516ZM31.3262 34.3379C31.3262 34.0449 31.2806 33.7845 31.1895 33.5566C31.1048 33.3288 30.9518 33.1204 30.7305 32.9316C30.5091 32.7428 30.1966 32.5605 29.793 32.3848C29.3958 32.2025 28.888 32.0169 28.2695 31.8281C27.5924 31.6198 26.9674 31.3887 26.3945 31.1348C25.8281 30.8743 25.3333 30.5749 24.9102 30.2363C24.487 29.8913 24.1582 29.4974 23.9238 29.0547C23.6895 28.6055 23.5723 28.0879 23.5723 27.502C23.5723 26.9225 23.6927 26.3952 23.9336 25.9199C24.181 25.4447 24.5293 25.0345 24.9785 24.6895C25.4342 24.3379 25.9714 24.0677 26.5898 23.8789C27.2083 23.6836 27.8919 23.5859 28.6406 23.5859C29.6953 23.5859 30.6035 23.7812 31.3652 24.1719C32.1335 24.5625 32.7227 25.0866 33.1328 25.7441C33.5495 26.4017 33.7578 27.1276 33.7578 27.9219H31.3262C31.3262 27.4531 31.2253 27.0397 31.0234 26.6816C30.8281 26.3171 30.5286 26.0306 30.125 25.8223C29.7279 25.6139 29.2233 25.5098 28.6113 25.5098C28.0319 25.5098 27.5501 25.5977 27.166 25.7734C26.7819 25.9492 26.4954 26.1868 26.3066 26.4863C26.1178 26.7858 26.0234 27.1243 26.0234 27.502C26.0234 27.7689 26.0853 28.013 26.209 28.2344C26.3327 28.4492 26.5215 28.651 26.7754 28.8398C27.0293 29.0221 27.3483 29.1947 27.7324 29.3574C28.1165 29.5202 28.569 29.6764 29.0898 29.8262C29.8776 30.0605 30.5645 30.321 31.1504 30.6074C31.7363 30.8874 32.2246 31.2064 32.6152 31.5645C33.0059 31.9225 33.2988 32.3294 33.4941 32.7852C33.6895 33.2344 33.7871 33.7454 33.7871 34.3184C33.7871 34.9173 33.6667 35.4577 33.4258 35.9395C33.1849 36.4147 32.8398 36.8216 32.3906 37.1602C31.9479 37.4922 31.4141 37.7493 30.7891 37.9316C30.1706 38.1074 29.4805 38.1953 28.7188 38.1953C28.0352 38.1953 27.3613 38.1042 26.6973 37.9219C26.0397 37.7396 25.4408 37.4629 24.9004 37.0918C24.36 36.7142 23.9303 36.2454 23.6113 35.6855C23.2923 35.1191 23.1328 34.4583 23.1328 33.7031H25.584C25.584 34.1654 25.6621 34.5592 25.8184 34.8848C25.9811 35.2103 26.2057 35.4772 26.4922 35.6855C26.7786 35.8874 27.1107 36.0371 27.4883 36.1348C27.8724 36.2324 28.2826 36.2812 28.7188 36.2812C29.2917 36.2812 29.7702 36.1999 30.1543 36.0371C30.5449 35.8743 30.8379 35.6465 31.0332 35.3535C31.2285 35.0605 31.3262 34.722 31.3262 34.3379Z" fill="#5C5C5C"/>
<line x1="50.2" y1="0.9" x2="38.2" y2="16.9" stroke="#F72210" stroke-width="3"/>
<line x1="13.2" y1="46.9" x2="1.2" y2="62.9" stroke="#F72210" stroke-width="3"/>
</svg>
